<svg id="outline" height="512" viewBox="0 0 64 64" width="512" xmlns="http://www.w3.org/2000/svg"><path d="m32 0a30.034 30.034 0 0 0 -30 30 29.734 29.734 0 0 0 5.346 17.1l-5.223 14.211a2 2 0 0 0 2.567 2.566l16.267-5.977a30 30 0 1 0 11.043-57.9zm0 56a25.824 25.824 0 0 1 -10.215-2.086 2 2 0 0 0 -1.476-.038l-12.94 4.755 4.1-11.153a2 2 0 0 0 -.278-1.89 26 26 0 1 1 20.809 10.412z"/><path d="m33.986 14.193a10.008 10.008 0 0 0 -11.986 9.807 2 2 0 0 0 4 0 6 6 0 1 1 8.372 5.514 7.076 7.076 0 0 0 -4.372 6.44v1.046a2 2 0 0 0 4 0v-1.046a3.045 3.045 0 0 1 1.955-2.766 10 10 0 0 0 -1.969-19z"/><path d="m32 41a2 2 0 0 0 -2 2v1a2 2 0 0 0 4 0v-1a2 2 0 0 0 -2-2z"/></svg>