<svg id="Layer_1" enable-background="new 0 0 512 512" viewBox="0 0 512 512" xmlns="http://www.w3.org/2000/svg" xmlns:xlink="http://www.w3.org/1999/xlink"><linearGradient id="lg1"><stop offset="0" stop-color="#f8da30"/><stop offset="1" stop-color="#fdab22"/></linearGradient><linearGradient id="SVGID_1_" gradientTransform="matrix(1 0 0 -1 0 512)" gradientUnits="userSpaceOnUse" x1="98.095" x2="594.545" xlink:href="#lg1" y1="614.19" y2="117.74"/><linearGradient id="SVGID_00000127727518918065102020000017791146191554523274_" gradientTransform="matrix(1 0 0 -1 0 512)" gradientUnits="userSpaceOnUse" x1="-2.048" x2="494.402" xlink:href="#lg1" y1="514.037" y2="17.597"/><linearGradient id="SVGID_00000183939817164987541050000001603171435237703323_" gradientTransform="matrix(1 0 0 -1 0 512)" gradientUnits="userSpaceOnUse" x1="-102.181" x2="394.259" xlink:href="#lg1" y1="413.904" y2="-82.546"/><g id="Layer_2_00000139265716193719411640000006018357986890353059_"><g id="Layer_2_copy_11"><g id="_62"><g id="_62-2"><path d="m71.2 0h369.7c29.2 0 52.8 23.6 52.8 52.8v5.8c0 29.2-23.6 52.8-52.8 52.8h-369.7c-29.2 0-52.8-23.6-52.8-52.8v-5.8c-.1-29.2 23.6-52.8 52.8-52.8z" fill="url(#SVGID_1_)"/><path d="m71.2 200.3h369.7c29.2 0 52.8 23.6 52.8 52.8v5.8c0 29.2-23.6 52.8-52.8 52.8h-369.7c-29.2 0-52.8-23.6-52.8-52.8v-5.8c-.1-29.2 23.6-52.8 52.8-52.8z" fill="url(#SVGID_00000127727518918065102020000017791146191554523274_)"/><path d="m71.2 400.6h369.7c29.2 0 52.8 23.6 52.8 52.8v5.8c0 29.2-23.6 52.8-52.8 52.8h-369.7c-29.2 0-52.8-23.6-52.8-52.8v-5.8c-.1-29.2 23.6-52.8 52.8-52.8z" fill="url(#SVGID_00000183939817164987541050000001603171435237703323_)"/></g></g></g></g></svg>